<?xml version="1.0" standalone="no"?>
<!DOCTYPE svg PUBLIC "-//W3C//DTD SVG 1.1//EN" "http://www.w3.org/Graphics/SVG/1.1/DTD/svg11.dtd">
<svg xmlns="http://www.w3.org/2000/svg">
<metadata>Generated by Fontastic.me</metadata>
<defs>
<font id="rb" horiz-adv-x="512">
<font-face font-family="rb" units-per-em="512" ascent="480" descent="-32"/>
<missing-glyph horiz-adv-x="512" />

<glyph glyph-name="binoculars" unicode="&#97;" d="M172 397c17-2 35-9 49-20-3 9-4 18-1 24 1 3 2 7 1 11-3 15-18 27-35 27-17 0-29-12-26-27 0 0 0 0 0-1 0 0-13-2-25-13-1-1-3-3-5-5 11 4 25 6 42 4z m326-170c0 1-1 2-1 3-1 2-11 16-22 31 0 0-41 60-70 101-7 7-25 26-63 22-21-3-47-15-55-35-1-7-2-13-3-13-2 0-5 9-12 15-3 4-9 6-15 6-6 0-12-2-15-6-7-6-11-15-13-15-1 0-1 4-2 9-6 22-34 36-57 39-37 4-55-14-62-21-29-41-71-102-71-102-11-15-20-29-21-31-1-1-1-2-2-3-5-13-8-27-8-42 0-61 47-110 108-110 61 0 108 49 108 110l0 17c0 9 7 23 16 26 5 2 11 3 17 3 6 0 14-1 19-3 9-3 17-17 17-26l0-17c0-61 47-110 108-110 61 0 108 49 108 110 0 15-3 29-9 42z m-382-121c-44 0-79 35-79 79 0 44 35 79 79 79 44 0 80-35 80-79 0-44-36-79-80-79z m140 158c-17 0-30 12-21 21 5 6 13 9 21 9 8 0 15-3 21-9 9-9-5-21-21-21z m144-153c-42 0-77 34-77 76 0 42 35 76 77 76 42 0 76-34 76-76 0-42-34-76-76-76z m-108 266c13 11 32 18 49 20 17 2 30 0 41-4-2 3-4 5-5 6-11 10-24 12-24 13 0 0 0 0 0 0 2 15-9 27-26 27-17 0-33-12-36-27-1-4 0-8 1-11 2-5 3-15 0-24z"/>
<glyph glyph-name="quote-close" unicode="&#98;" d="M103 474c-53 0-96-44-96-99 0-55 43-99 96-99 96 0 32-192-96-192l0-46c229 0 318 436 96 436z m277 0c-53 0-96-44-96-99 0-55 43-99 96-99 97 0 32-192-96-192l0-46c229 0 319 436 96 436z"/>
<glyph glyph-name="quote-open" unicode="&#99;" d="M414 38c53 0 96 44 96 99 0 55-43 99-96 99-97 0-33 192 96 192l0 46c-229 0-319-436-96-436z m-278 0c53 0 96 44 96 99 0 55-43 99-96 99-96 0-32 192 96 192l0 46c-229 0-319-436-96-436z"/>
<glyph glyph-name="broom" unicode="&#100;" d="M499 499c-11 10-28 10-38-1l-255-264-5 5c-7 7-18 7-25 0-5-5-7-13-4-20-8 4-18 6-28 6-21 0-41-9-57-24l-78-79c-2-2-4-5-4-8 0-4 2-7 4-9l15-15 76 58-58-77 35-35 49 37-37-48 16-17c5-5 13-5 18 0l79 79c23 23 29 56 18 85 2-1 5-2 7-2 5 0 9 2 13 5 7 7 7 19 0 25l-5 5 264 256c0 0 0 0 0 0 11 11 10 28 0 38z m-483-196c-1-1 0-2 0-3 1 0 2 0 3 0l36 26 41-17c1 0 2 0 2 1 1 0 1 2 0 2l-25 36 17 41c0 1 0 2-1 3-1 0-2 0-3 0l-36-26-40 17c-1 0-2 0-3-1-1-1-1-2 0-3l25-35z m375-145l-30 2-14 27c0 1-2 1-3 1-1 0-1-1-1-2l-3-30-26-14c-1 0-1-1-1-2 0-1 1-2 2-2l30-2 14-26c0-1 1-2 2-2 1 1 2 1 2 2l2 30 26 14c1 0 2 1 2 2-1 1-1 2-2 2z m-211 298l-1-17c0-1 0-2 1-2 1-1 2 0 3 1l10 13 16-1c1 0 2 1 2 2 1 1 0 2 0 2l-14 10 1 16c0 1-1 2-2 3 0 0-2 0-2-1l-10-14-16 1c-1 0-2 0-2-1-1-1 0-2 0-3z"/>
<glyph glyph-name="right" unicode="&#101;" d="M193 14c18 18 198 207 198 207 9 10 14 22 14 35 0 13-5 25-14 35 0 0-180 189-198 207-18 18-51 19-71 0-20-19-21-46 0-70l165-172-165-173c-21-23-20-50 0-69 20-19 53-18 71 0z"/>
<glyph glyph-name="call" unicode="&#102;" d="M501 114l-80 77c-15 15-41 14-58-2l-40-38c-2 1-5 3-7 4-26 14-60 32-96 67-37 35-56 69-70 93-1 3-3 5-4 8l27 26 13 12c16 16 17 41 1 57l-79 76c-16 15-42 15-58-1l-22-22 0 0c-7-9-14-20-18-32-4-11-7-21-8-31-11-84 29-161 136-265 148-143 268-133 273-132 11 1 22 4 33 8 12 4 23 10 32 18l1-1 22 22c17 15 17 41 2 56z"/>
<glyph glyph-name="camera" unicode="&#103;" d="M497 273l-339 169c-7 3-15 1-18-6l-73-145c-1-4-1-7 0-11 1-3 3-6 6-7l102-51-9-18c-4-7-1-15 6-18l3-2-17-31-103 0c-10 19-29 31-51 31l0-115c21 0 40 12 50 30l119 0c10 0 19 5 24 14l26 47 5-2c7-4 15-1 18 6l9 18 76-38c4-2 9-2 13 1l21 14 37-18c2-1 4-2 6-2 2 0 3 0 5 1 3 1 6 3 7 7l39 76 39 26c4 3 6 8 6 12 0 5-3 10-7 12z"/>
<glyph glyph-name="swimming" unicode="&#104;" d="M452 158c-5-6-13-9-21-9-8 0-16 3-21 9-17 19-41 31-69 31-27 0-51-12-68-30-5-6-13-10-21-10-8 0-15 4-21 10-16 18-41 30-68 30-27 0-51-12-68-30-5-6-13-10-21-10-8 0-16 4-21 10-13 14-31 25-51 28l0-54c4-3 8-6 12-9 15-18 37-27 60-27 23 0 45 9 61 27 7 8 17 12 28 12 11 0 21-4 29-12 15-18 37-27 60-27 23 0 45 9 61 27 7 8 17 12 28 12 15 0 25-8 29-13 15-17 38-27 61-27 23 0 46 10 61 27 3 4 9 9 17 12l0 53c-23-3-43-14-57-30z m9 116c0 36-29 65-65 65-36 0-66-29-66-65 0-35 30-65 66-65 36 0 65 30 65 65z m-216-104c3-4 11-4 15 0 17 19 39 31 64 35 1 10 1 20-3 30-2 6-22 75-22 75 0 0-3 15 6 27 9 13 27 22 53 26 14 2 24 15 22 30-2 14-15 24-30 22-41-6-71-22-89-48-22-32-15-65-14-69l6-23c-4 0-7-1-11-2l-107-38c-24-8-39-30-41-53 20 16 44 25 69 25 31 0 61-14 82-37z"/>
<glyph glyph-name="up" unicode="&#105;" d="M486 195c-18 18-199 190-199 190-9 10-22 14-34 14-12 0-24-4-33-14 0 0-182-172-199-190-17-17-18-49 0-68 18-19 44-20 67 0l165 158 166-158c23-20 48-19 67 0 18 19 17 51 0 68z"/>
<glyph glyph-name="chat" unicode="&#106;" d="M148 200l0 158-97 0c-28 0-51-23-51-51l0-153c0-28 23-51 51-51l25 0 0-76 77 76 127 0c28 0 51 23 51 51l0 47c-2-1-3-1-5-1z m310 285l-229 0c-28 0-51-23-51-51l0-203 179 0 76-77 0 77 26 0c28 0 50 23 50 51l0 152c0 28-23 51-51 51z"/>
<glyph glyph-name="computer" unicode="&#107;" d="M502 236c-1 2-2 5-5 6-18 15-37 22-56 24 0 0-3 1-9 1-6 0-9-1-9-1-18-2-36-10-54-24-2-1-4-4-5-6-8-31-11-60-7-92 3-28 11-57 20-88 1-3 3-5 5-7 14-11 32-16 51-16 19 0 37 5 51 16 3 2 4 4 5 7 9 31 17 60 20 88 4 32 2 61-7 92z m-58-53c0-6-5-11-11-11-6 0-11 5-11 11l0 47c0 6 5 11 11 11 6 0 11-5 11-11z m-97-120l-20 0-17 57 34 0c-1 6-2 12-3 18-2 19-2 37 0 54l-302 0 0 252 409 0 0-162c13-1 26-5 39-11l0 192c0 11-9 20-20 20l-447 0c-11 0-20-9-20-20l0-323c0-11 9-20 20-20l157 0-17-57-20 0c-5 0-9-4-9-10l0-15c0-5 4-9 9-9l207 0c5 0 9 4 9 9l0 15c0 6-4 10-9 10z"/>
<glyph glyph-name="wifi" unicode="&#108;" d="M255 155c-28 0-50-23-50-51 0-27 22-50 50-50 28 0 50 23 50 50 0 28-22 51-50 51z m-107 56l36-35c39 39 103 39 142 0l36 35c-59 59-155 59-214 0z m-71 71l36-35c78 78 206 78 285 0l35 35c-98 99-258 99-356 0z m-71 72l35-36c118 118 310 118 428 0l35 36c-137 137-361 137-498 0z"/>
<glyph glyph-name="zoom" unicode="&#109;" d="M496 72l-72 71c-7 7-16 10-25 10l-34 34c58 78 52 189-18 259-78 77-203 77-280 0-77-77-77-202 0-280 70-70 181-76 259-17l34-35c0-9 3-18 10-25l71-71c13-13 34-13 47 0l7 8c13 12 13 33 1 46z m-192 137c-54-53-141-53-194 0-54 54-54 141 0 194 53 54 140 54 194 1 54-54 53-141 0-195z m-43 118l-33 0 0 32c0 12-9 22-21 22l0 0c-12 0-21-10-21-22l0-32-32 0c-12 0-22-9-22-21l0 0c0-12 10-21 22-21l32 0 0-33c0-11 9-21 21-21l0 0c12 0 21 10 21 21l0 33 32 0c12 0 22 9 22 21l0 0c0 12-10 21-21 21z"/>
<glyph glyph-name="down" unicode="&#110;" d="M498 319c-18-18-207-198-207-198-10-9-22-14-35-14-13 0-25 5-35 14 0 0-189 180-207 198-18 18-19 51 0 71 19 20 46 21 70 0l172-165 173 165c23 21 50 20 69 0 19-20 18-53 0-71z"/>
<glyph glyph-name="heart" unicode="&#111;" d="M468 433c-49 45-130 45-179 0l-34-31-34 31c-49 45-130 45-179 0-56-51-56-134 0-185l213-195 213 195c56 51 56 134 0 185z"/>
<glyph glyph-name="home" unicode="&#112;" d="M500 251l-226 225c-11 12-30 12-42 0l-226-225c-11-12-7-22 10-22l47 0 0-173c0-13 1-23 23-23l110 0 0 174 115 0 0-174 115 0c17 0 18 10 18 23l0 173 47 0c16 0 21 10 9 22z"/>
<glyph glyph-name="lamp" unicode="&#113;" d="M311 47l-13 0c-9 0-17 8-17 19l0 132c0 16-12 28-26 28-14 0-25-12-25-28l0-132c0-10-8-19-18-19l-12 0c-16 0-29-15-29-32l0-9 169 0 0 9c0 17-13 32-29 32z m129 274c0 0-76 167-86 177-9 10-22 8-22 8l-159 0c0 0-13 2-22-8-9-9-80-177-80-177-9-17-17-47-5-57 11-10 37-7 52-7 15 0 29-12 30-27 2-15-3-29-8-36-2-4-4-8-4-13 0-13 10-24 22-24 11 0 21 11 21 24 0 5-2 9-4 13-4 7-9 21-7 36 1 15 17 27 35 27l190 0c17 0 43 1 53 10 10 9 3 37-6 54z"/>
<glyph glyph-name="left" unicode="&#114;" d="M321 14c-19 18-198 207-198 207-10 10-15 22-15 35 0 13 5 25 15 35 0 0 179 189 198 207 18 18 51 19 71 0 19-19 21-46 0-70l-165-172 165-173c21-23 19-50 0-69-20-19-53-18-71 0z"/>
<glyph glyph-name="mail" unicode="&#115;" d="M467 51c11 0 21 4 29 12l-143 144c-4-2-7-5-10-7-11-8-20-14-27-19-6-4-15-9-26-13-11-5-22-7-31-7l-1 0c-10 0-20 2-31 7-11 4-20 9-27 13-7 5-15 11-26 19-3 2-6 5-10 7l-144-144c9-8 19-12 30-12z m-434 247c-10 7-20 16-28 25l0-220 126 127c-25 18-58 41-98 68z m451 0c-39-26-72-49-99-68l127-127 0 220c-8-9-18-17-28-25z m-17 154l-417 0c-14 0-26-5-33-15-8-9-12-22-12-37 0-12 5-24 15-38 11-14 22-25 33-33 7-5 26-18 58-41 18-12 33-23 46-32 11-8 21-14 29-20 0 0 2-1 4-3 2-1 4-3 8-6 6-4 11-8 15-10 4-3 9-6 15-10 5-3 11-6 16-7 5-2 10-3 14-3l1 0c4 0 9 1 14 3 5 1 10 4 16 7 6 4 11 7 15 10 4 2 9 6 15 10 3 3 6 5 8 6 2 2 3 3 4 3 6 4 16 11 29 20 23 17 58 41 103 73 14 9 26 21 35 35 9 13 14 28 14 43 0 12-5 23-14 32-9 9-19 13-31 13z"/>
<glyph glyph-name="pin" unicode="&#116;" d="M256 512c-92 0-168-76-168-169 0-37 24-98 73-187 35-62 69-114 70-116l25-38 25 38c2 2 36 54 70 116 49 89 73 150 73 187 0 93-75 169-168 169z m0-255c-48 0-87 39-87 87 0 49 39 88 87 88 48 0 87-39 87-88 0-48-39-87-87-87z"/>
<glyph glyph-name="tick" unicode="&#117;" d="M225 94c-22-23-59-23-81 0l-127 126c-23 23-23 60 0 82 22 23 59 23 82 0l75-75c6-6 15-6 21 0l204 204c23 23 59 23 82 0 11-11 17-25 17-41 0-15-6-30-17-41z"/>
</font>
</defs>
</svg>
